<svg id="svg" version="1.1" xmlns="http://www.w3.org/2000/svg" xmlns:xlink="http://www.w3.org/1999/xlink" width="400" height="400" viewBox="0, 0, 400,400"><g id="svgg"><path id="path0" d="M71.472 48.261 C 71.358 48.376,70.495 48.513,69.555 48.566 C 68.615 48.619,67.776 48.873,67.690 49.131 C 67.604 49.389,67.268 49.600,66.943 49.600 C 66.618 49.600,66.445 49.451,66.558 49.268 C 66.671 49.085,65.736 49.427,64.482 50.027 C 63.227 50.626,62.034 51.016,61.832 50.893 C 61.630 50.770,61.577 50.963,61.715 51.322 C 61.989 52.037,61.398 52.644,61.021 52.035 C 60.893 51.827,60.220 52.175,59.525 52.809 C 58.831 53.444,58.114 53.870,57.931 53.758 C 57.749 53.645,57.600 53.729,57.600 53.944 C 57.600 54.160,56.793 55.115,55.807 56.068 C 54.820 57.021,54.010 57.941,54.007 58.113 C 54.003 58.286,53.415 58.999,52.700 59.698 C 51.985 60.397,51.465 60.976,51.543 60.984 C 51.622 60.993,51.067 62.297,50.310 63.883 C 49.552 65.468,49.083 66.672,49.266 66.559 C 49.450 66.446,49.600 66.618,49.600 66.943 C 49.600 67.268,49.424 67.593,49.208 67.667 C 48.269 67.986,48.060 73.284,48.017 97.800 C 47.972 123.589,48.143 127.361,49.340 126.900 C 49.483 126.845,49.735 126.805,49.900 126.812 C 50.065 126.818,55.302 126.813,61.538 126.800 L 72.876 126.777 74.331 125.789 L 75.786 124.800 200.000 124.800 L 324.214 124.800 325.702 125.811 L 327.190 126.822 338.125 126.788 C 344.139 126.769,349.226 126.792,349.430 126.840 C 350.825 127.168,352.374 125.142,351.528 124.098 C 351.119 123.593,351.115 123.516,351.513 123.755 C 351.928 124.004,351.994 118.919,351.859 96.931 C 351.689 69.023,351.663 68.000,351.120 68.000 C 350.944 68.000,350.800 67.561,350.800 67.024 C 350.800 66.487,350.620 65.936,350.400 65.800 C 350.180 65.664,350.000 65.203,350.000 64.776 C 350.000 64.349,349.820 64.000,349.600 64.000 C 349.380 64.000,349.200 63.664,349.200 63.254 C 349.200 62.844,348.840 62.050,348.400 61.491 C 347.960 60.931,347.600 60.354,347.600 60.208 C 347.600 60.062,347.328 59.671,346.996 59.339 C 346.664 59.007,346.495 58.570,346.620 58.368 C 346.745 58.165,346.662 58.000,346.435 58.000 C 345.936 58.000,342.000 54.017,342.000 53.511 C 342.000 53.314,341.835 53.255,341.632 53.380 C 341.430 53.505,340.993 53.336,340.661 53.004 C 340.329 52.672,339.874 52.400,339.651 52.400 C 339.428 52.400,338.984 52.027,338.665 51.572 C 338.243 50.969,338.028 50.887,337.874 51.272 C 337.738 51.612,337.652 51.542,337.632 51.076 C 337.614 50.678,337.420 50.464,337.200 50.600 C 336.980 50.736,336.800 50.695,336.800 50.509 C 336.800 50.323,336.222 50.126,335.516 50.072 C 334.809 50.018,334.092 49.755,333.922 49.487 C 333.752 49.219,333.609 49.126,333.606 49.280 C 333.603 49.433,332.925 49.253,332.100 48.880 C 330.199 48.019,252.400 47.572,252.400 48.422 C 252.400 48.677,252.147 48.788,251.838 48.670 C 251.528 48.551,250.960 48.802,250.576 49.227 C 249.913 49.960,249.223 50.000,237.408 50.000 L 224.939 50.000 224.000 49.000 L 223.061 48.000 200.000 48.000 L 176.939 48.000 176.000 49.000 L 175.061 50.000 162.600 50.000 L 150.139 50.000 149.196 48.996 C 148.495 48.249,148.170 48.121,147.932 48.496 C 147.676 48.899,147.611 48.897,147.606 48.487 C 147.600 47.972,71.986 47.748,71.472 48.261 " stroke="none" fill="#74949c" fill-rule="evenodd"></path><path id="path1" d="M159.887 200.042 C 152.176 201.233,147.682 209.850,150.991 217.099 C 151.897 219.084,154.322 221.686,168.635 236.030 C 182.115 249.540,185.178 252.804,184.959 253.430 C 184.811 253.853,177.176 261.760,167.994 271.000 C 152.295 286.797,151.256 287.931,150.582 290.000 C 147.830 298.459,153.177 306.177,161.800 306.193 C 167.584 306.204,167.037 306.620,186.024 287.735 C 195.168 278.641,202.901 271.200,203.209 271.200 C 203.517 271.200,211.246 278.651,220.384 287.758 C 238.551 305.861,238.729 306.004,243.448 306.313 C 251.144 306.815,256.815 301.144,256.313 293.448 C 256.004 288.729,255.861 288.551,237.758 270.384 C 228.651 261.246,221.200 253.517,221.200 253.209 C 221.200 252.901,228.641 245.168,237.735 236.024 C 256.620 217.037,256.204 217.584,256.193 211.800 C 256.177 203.157,248.478 197.824,240.000 200.582 C 237.929 201.256,236.815 202.280,220.989 218.049 C 207.980 231.013,203.957 234.800,203.196 234.800 C 202.435 234.800,198.506 231.099,185.806 218.419 C 166.691 199.333,166.295 199.052,159.887 200.042 " stroke="none" fill="#fbfbfb" fill-rule="evenodd"></path><path id="path2" d="M74.305 126.125 L 73.210 127.022 73.195 247.733 C 73.186 314.124,73.275 368.597,73.391 368.786 C 73.507 368.974,73.493 369.414,73.359 369.764 C 73.224 370.114,73.308 370.400,73.545 370.400 C 73.781 370.400,73.870 370.672,73.743 371.005 C 73.615 371.338,73.726 371.870,73.990 372.188 C 74.253 372.505,74.353 372.953,74.211 373.182 C 74.069 373.412,74.163 373.600,74.419 373.600 C 74.676 373.600,74.782 373.870,74.655 374.200 C 74.529 374.530,74.619 374.800,74.855 374.800 C 75.092 374.800,75.182 375.070,75.055 375.400 C 74.929 375.730,75.019 376.000,75.255 376.000 C 75.492 376.000,75.582 376.270,75.455 376.600 C 75.329 376.930,75.399 377.200,75.613 377.200 C 75.826 377.200,75.979 377.335,75.953 377.500 C 75.927 377.665,75.949 377.935,76.003 378.100 C 76.056 378.265,76.131 378.535,76.170 378.700 C 76.445 379.887,76.915 380.800,77.251 380.800 C 77.469 380.800,77.543 380.969,77.415 381.176 C 77.287 381.383,77.591 381.950,78.091 382.435 C 78.591 382.920,78.730 383.167,78.400 382.982 C 77.697 382.589,78.500 383.759,79.600 384.730 C 80.133 385.200,80.133 385.230,79.600 384.995 C 79.270 384.850,79.450 385.096,80.000 385.542 C 80.550 385.989,81.000 386.501,81.000 386.680 C 81.000 386.859,81.638 387.635,82.419 388.403 C 83.532 389.499,83.575 389.586,82.619 388.807 C 81.948 388.261,82.560 389.021,83.978 390.496 C 85.395 391.971,86.633 393.101,86.727 393.006 C 86.822 392.911,87.192 393.150,87.550 393.536 C 87.907 393.922,88.110 394.041,88.000 393.800 C 87.890 393.559,88.139 393.731,88.553 394.181 C 88.967 394.632,89.467 394.953,89.664 394.896 C 89.861 394.839,90.126 395.063,90.253 395.394 C 90.380 395.725,90.644 395.896,90.840 395.775 C 91.036 395.654,91.677 396.060,92.264 396.677 C 92.851 397.295,93.200 397.574,93.040 397.297 C 92.810 396.899,92.961 396.890,93.762 397.255 C 94.319 397.509,94.696 397.844,94.600 398.000 C 94.362 398.385,96.367 399.268,96.830 398.981 C 97.033 398.856,97.200 398.954,97.200 399.200 C 97.200 399.446,97.380 399.536,97.600 399.400 C 97.820 399.264,98.000 399.343,98.000 399.575 C 98.000 399.870,128.713 399.997,200.000 399.997 C 265.247 399.997,302.000 399.858,302.000 399.611 C 302.000 399.399,302.300 399.340,302.666 399.481 C 303.152 399.667,303.242 399.592,303.000 399.200 C 302.758 398.808,302.848 398.733,303.334 398.919 C 303.700 399.060,304.000 398.990,304.000 398.764 C 304.000 398.538,304.180 398.464,304.400 398.600 C 304.620 398.736,304.800 398.646,304.800 398.400 C 304.800 398.154,304.980 398.064,305.200 398.200 C 305.420 398.336,305.600 398.246,305.600 398.000 C 305.600 397.754,305.780 397.664,306.000 397.800 C 306.220 397.936,306.400 397.846,306.400 397.600 C 306.400 397.354,306.569 397.257,306.775 397.385 C 306.982 397.512,307.297 397.356,307.475 397.037 C 307.788 396.479,307.949 396.400,308.781 396.400 C 308.990 396.400,309.830 395.725,310.646 394.900 C 311.463 394.075,311.994 393.670,311.826 394.000 C 311.658 394.330,312.123 393.961,312.860 393.179 C 313.597 392.398,313.933 392.128,313.607 392.579 C 313.281 393.031,314.316 392.140,315.906 390.600 C 318.814 387.785,319.769 386.610,317.675 388.425 C 317.056 388.961,317.371 388.602,318.375 387.628 C 319.379 386.653,319.921 386.023,319.581 386.228 C 319.241 386.432,319.421 386.175,319.981 385.656 C 320.541 385.137,320.730 384.851,320.400 385.022 C 320.070 385.192,320.295 384.860,320.900 384.285 C 321.900 383.334,322.181 382.748,322.047 381.900 C 322.021 381.735,322.191 381.600,322.424 381.600 C 322.657 381.600,322.736 381.420,322.600 381.200 C 322.464 380.980,322.554 380.800,322.800 380.800 C 323.046 380.800,323.136 380.620,323.000 380.400 C 322.864 380.180,322.954 380.000,323.200 380.000 C 323.446 380.000,323.536 379.820,323.400 379.600 C 323.264 379.380,323.354 379.200,323.600 379.200 C 323.846 379.200,323.936 379.020,323.800 378.800 C 323.664 378.580,323.754 378.400,324.000 378.400 C 324.246 378.400,324.345 378.235,324.221 378.034 C 324.097 377.833,324.159 377.608,324.359 377.534 C 324.560 377.460,324.786 376.950,324.862 376.400 C 324.938 375.850,325.146 375.292,325.325 375.161 C 325.504 375.029,325.666 374.354,325.686 373.661 C 325.706 372.967,325.894 372.400,326.104 372.400 C 326.314 372.400,326.373 372.107,326.236 371.749 C 326.099 371.391,326.185 370.859,326.428 370.567 C 326.670 370.274,326.753 369.847,326.611 369.618 C 326.469 369.388,326.458 369.030,326.587 368.822 C 326.715 368.614,326.814 314.124,326.805 247.733 L 326.790 127.022 325.695 126.125 L 324.600 125.229 200.000 125.229 L 75.400 125.229 74.305 126.125 M167.817 199.584 C 169.355 200.309,173.484 204.188,186.211 216.860 C 195.237 225.847,202.878 233.200,203.191 233.200 C 203.504 233.200,211.239 225.753,220.380 216.651 C 239.447 197.665,238.779 198.158,245.000 198.497 C 252.665 198.915,257.800 204.332,257.800 212.000 C 257.800 218.014,257.996 217.754,239.377 236.411 C 230.480 245.327,223.200 252.884,223.200 253.204 C 223.200 253.525,230.481 261.080,239.381 269.994 C 258.002 288.644,257.800 288.376,257.800 294.400 C 257.800 302.157,252.157 307.800,244.400 307.800 C 238.376 307.800,238.644 308.002,219.994 289.381 C 211.080 280.481,203.525 273.200,203.204 273.200 C 202.884 273.200,195.327 280.480,186.411 289.377 C 167.750 308.000,168.011 307.803,162.000 307.796 C 154.346 307.787,148.869 302.602,148.484 295.000 C 148.169 288.763,147.673 289.435,166.649 270.389 C 175.752 261.253,183.200 253.518,183.200 253.200 C 183.200 252.882,175.847 245.237,166.860 236.211 C 148.828 218.101,148.814 218.083,148.488 213.010 C 147.813 202.490,158.396 195.139,167.817 199.584 " stroke="none" fill="#e46c54" fill-rule="evenodd"></path><path id="path3" d="M147.600 23.797 L 147.600 47.600 110.424 47.600 C 89.977 47.600,73.164 47.735,73.062 47.900 C 72.960 48.065,89.689 48.149,110.238 48.086 C 140.449 47.994,147.601 48.071,147.606 48.486 C 147.611 48.897,147.677 48.899,147.932 48.496 C 148.170 48.121,148.495 48.249,149.196 48.996 L 150.139 50.000 162.600 50.000 L 175.061 50.000 176.000 49.000 L 176.939 48.000 200.000 48.000 L 223.061 48.000 224.000 49.000 L 224.939 50.000 237.408 50.000 C 249.223 50.000,249.913 49.960,250.576 49.227 C 250.960 48.802,251.528 48.551,251.838 48.670 C 252.147 48.788,252.400 48.681,252.400 48.431 C 252.400 48.094,262.062 48.005,289.762 48.088 C 310.311 48.150,327.040 48.065,326.938 47.900 C 326.836 47.735,310.023 47.600,289.576 47.600 L 252.400 47.600 252.400 23.806 L 252.400 0.012 200.000 0.003 L 147.600 -0.006 147.600 23.797 M222.800 37.400 L 222.800 47.600 200.000 47.600 L 177.200 47.600 177.200 37.400 L 177.200 27.200 200.000 27.200 L 222.800 27.200 222.800 37.400 M67.521 48.613 C 67.404 48.729,66.892 48.905,66.383 49.003 C 65.875 49.101,65.266 49.390,65.029 49.644 C 64.707 49.992,64.789 50.007,65.357 49.706 C 65.773 49.485,66.423 49.386,66.802 49.485 C 67.189 49.586,67.596 49.388,67.732 49.032 C 67.980 48.387,67.901 48.232,67.521 48.613 M332.559 48.965 C 332.976 49.300,333.471 49.480,333.659 49.364 C 333.847 49.248,334.000 49.343,334.000 49.576 C 334.000 49.809,334.315 49.995,334.700 49.988 C 335.426 49.975,334.525 49.210,333.708 49.145 C 333.539 49.132,333.040 48.949,332.600 48.738 C 331.823 48.367,331.822 48.374,332.559 48.965 M63.100 50.229 C 61.605 51.040,61.696 51.378,63.200 50.600 C 63.860 50.259,64.400 49.894,64.400 49.790 C 64.400 49.532,64.357 49.547,63.100 50.229 M338.800 51.800 C 339.352 52.465,340.594 52.638,340.196 51.993 C 340.058 51.770,339.777 51.691,339.572 51.817 C 339.368 51.944,339.200 51.857,339.200 51.624 C 339.200 51.391,338.998 51.200,338.751 51.200 C 338.441 51.200,338.456 51.385,338.800 51.800 M55.861 55.223 C 55.277 55.682,54.800 56.301,54.800 56.598 C 54.800 56.903,55.330 56.609,56.018 55.921 C 57.464 54.475,57.366 54.040,55.861 55.223 M343.964 55.931 C 344.754 56.773,345.465 57.298,345.544 57.099 C 345.726 56.639,343.606 54.400,342.989 54.400 C 342.735 54.400,343.174 55.089,343.964 55.931 M53.067 58.267 C 52.581 58.753,52.790 59.179,53.400 58.945 C 53.730 58.818,54.000 58.554,54.000 58.357 C 54.000 57.938,53.449 57.884,53.067 58.267 M347.632 59.937 C 347.614 60.232,347.960 60.931,348.400 61.491 C 348.840 62.050,349.200 62.844,349.200 63.254 C 349.200 63.664,349.380 64.000,349.600 64.000 C 349.820 64.000,350.000 64.338,350.000 64.751 C 350.000 65.164,350.276 65.731,350.613 66.011 C 351.149 66.456,351.176 66.389,350.828 65.473 C 350.245 63.941,348.738 61.032,348.406 60.800 C 348.249 60.690,348.017 60.330,347.892 60.000 C 347.726 59.565,347.654 59.548,347.632 59.937 M50.278 63.005 C 49.912 63.772,49.695 64.400,49.796 64.400 C 50.070 64.400,51.284 61.951,51.101 61.768 C 51.014 61.681,50.644 62.238,50.278 63.005 M48.866 66.168 C 49.012 66.332,48.867 67.100,48.543 67.876 C 48.218 68.652,48.045 69.378,48.157 69.490 C 48.269 69.603,48.479 69.223,48.624 68.647 C 48.768 68.071,49.047 67.600,49.243 67.600 C 49.782 67.600,49.671 66.488,49.100 66.159 C 48.825 66.001,48.720 66.005,48.866 66.168 M352.089 71.800 C 352.034 72.020,351.994 83.867,352.000 98.127 C 352.009 118.917,351.911 123.994,351.506 123.750 C 351.205 123.570,351.243 123.746,351.600 124.185 C 352.137 124.845,352.211 123.496,352.305 111.433 C 352.413 97.612,352.268 71.082,352.089 71.800 M47.600 98.776 C 47.600 113.063,47.735 124.836,47.900 124.938 C 48.065 125.040,48.200 113.351,48.200 98.962 C 48.200 84.573,48.065 72.800,47.900 72.800 C 47.735 72.800,47.600 84.489,47.600 98.776 M62.400 126.800 L 51.400 127.019 62.099 127.110 L 72.799 127.200 72.899 245.100 L 73.000 363.000 73.200 244.700 C 73.310 179.635,73.400 126.441,73.400 126.490 C 73.400 126.540,68.450 126.679,62.400 126.800 M326.800 244.800 L 327.000 363.000 327.101 245.100 L 327.201 127.200 337.777 127.200 C 343.594 127.200,348.436 127.065,348.538 126.900 C 348.640 126.735,343.746 126.600,337.662 126.600 L 326.600 126.600 326.800 244.800 " stroke="none" fill="#64848c" fill-rule="evenodd"></path><path id="path4" d="M137.700 125.100 C 171.965 125.156,228.035 125.156,262.300 125.100 C 296.565 125.044,268.530 124.997,200.000 124.997 C 131.470 124.997,103.435 125.044,137.700 125.100 M157.282 199.134 C 151.510 201.192,148.077 206.609,148.488 213.010 C 148.814 218.083,148.828 218.101,166.860 236.211 C 175.847 245.237,183.200 252.882,183.200 253.200 C 183.200 253.518,175.752 261.253,166.649 270.389 C 147.673 289.435,148.169 288.763,148.484 295.000 C 148.869 302.602,154.346 307.787,162.000 307.796 C 168.011 307.803,167.750 308.000,186.411 289.377 C 195.327 280.480,202.884 273.200,203.204 273.200 C 203.525 273.200,211.080 280.481,219.994 289.381 C 238.644 308.002,238.376 307.800,244.400 307.800 C 252.157 307.800,257.800 302.157,257.800 294.400 C 257.800 288.376,258.002 288.644,239.381 269.994 C 230.481 261.080,223.200 253.525,223.200 253.204 C 223.200 252.884,230.480 245.327,239.377 236.411 C 257.996 217.754,257.800 218.014,257.800 212.000 C 257.800 204.332,252.665 198.915,245.000 198.497 C 238.779 198.158,239.447 197.665,220.380 216.651 C 211.239 225.753,203.504 233.200,203.191 233.200 C 202.878 233.200,195.237 225.847,186.211 216.860 C 173.484 204.188,169.355 200.309,167.817 199.584 C 165.074 198.290,160.230 198.083,157.282 199.134 M167.200 201.062 C 169.080 201.896,171.785 204.419,185.806 218.419 C 198.506 231.099,202.435 234.800,203.196 234.800 C 203.957 234.800,207.980 231.013,220.989 218.049 C 236.815 202.280,237.929 201.256,240.000 200.582 C 248.478 197.824,256.177 203.157,256.193 211.800 C 256.204 217.584,256.620 217.037,237.735 236.024 C 228.641 245.168,221.200 252.901,221.200 253.209 C 221.200 253.517,228.651 261.246,237.758 270.384 C 255.861 288.551,256.004 288.729,256.313 293.448 C 256.815 301.144,251.144 306.815,243.448 306.313 C 238.729 306.004,238.551 305.861,220.384 287.758 C 211.246 278.651,203.517 271.200,203.209 271.200 C 202.901 271.200,195.168 278.641,186.024 287.735 C 167.037 306.620,167.584 306.204,161.800 306.193 C 153.177 306.177,147.830 298.459,150.582 290.000 C 151.256 287.931,152.295 286.797,167.994 271.000 C 177.176 261.760,184.811 253.853,184.959 253.430 C 185.178 252.804,182.115 249.540,168.635 236.030 C 154.322 221.686,151.897 219.084,150.991 217.099 C 146.259 206.734,156.699 196.406,167.200 201.062 M72.909 364.800 C 72.909 365.790,72.987 366.195,73.082 365.700 C 73.178 365.205,73.178 364.395,73.082 363.900 C 72.987 363.405,72.909 363.810,72.909 364.800 M326.909 364.800 C 326.909 365.790,326.987 366.195,327.082 365.700 C 327.178 365.205,327.178 364.395,327.082 363.900 C 326.987 363.405,326.909 363.810,326.909 364.800 " stroke="none" fill="#ec8b76" fill-rule="evenodd"></path></g></svg>